<svg width="44" height="44" viewBox="0 0 44 44" fill="none" xmlns="http://www.w3.org/2000/svg">
<g filter="url(#filter0_b_574_15104)">
<g clip-path="url(#clip0_574_15104)">
<rect x="2" y="2" width="39.4555" height="39.4555" rx="7.89117" fill="black"/>
<g clip-path="url(#clip1_574_15104)">
<path d="M28.7922 17.2875H26.4787C26.2114 17.2875 25.9549 17.1734 25.7749 16.9723L24.8364 15.918C24.6945 15.7604 24.4981 15.668 24.2853 15.668C24.0725 15.668 23.8761 15.7604 23.7342 15.918L22.9267 16.8256C22.6648 17.119 22.2829 17.2929 21.89 17.2929H9.22606C8.86595 18.3092 8.63133 19.3907 8.53857 20.5157H20.4932C20.706 20.5157 20.9024 20.4288 21.0498 20.2766L22.1628 19.119C22.2992 18.9723 22.4957 18.8908 22.6921 18.8908H22.7357C22.9485 18.8908 23.145 18.9831 23.2868 19.1407L24.2253 20.1951C24.4054 20.3962 24.6618 20.5103 24.9292 20.5103H34.6849C34.5922 19.3907 34.3576 18.3038 33.9975 17.2821L28.7922 17.2875Z" fill="white"/>
<path d="M15.7732 27.2988C15.986 27.2988 16.1824 27.2118 16.3297 27.0596L17.4428 25.902C17.5847 25.7553 17.7756 25.6738 17.9775 25.6738H18.0212C18.234 25.6738 18.4359 25.7662 18.5723 25.9183L19.5107 26.9727C19.6908 27.1738 19.9472 27.2879 20.2146 27.2879H33.4405C33.9371 26.2662 34.2972 25.1738 34.5154 24.0271H21.8187C21.5514 24.0271 21.2949 23.9129 21.1149 23.7119L20.1764 22.6684C20.0345 22.5108 19.8381 22.4238 19.6253 22.4238C19.4125 22.4238 19.2106 22.5162 19.0742 22.6684L18.2667 23.576C18.0048 23.8749 17.6229 24.0434 17.2246 24.0434H8.71826C8.93651 25.1901 9.29662 26.2825 9.79314 27.3042L15.7732 27.2988Z" fill="white"/>
<path d="M25.1526 13.7618C25.3654 13.7618 25.5618 13.6749 25.7092 13.5227L26.8222 12.3651C26.9586 12.2184 27.1551 12.1368 27.357 12.1368H27.4006C27.6134 12.1368 27.8098 12.2292 27.9517 12.3868L28.8902 13.4466C29.0702 13.6477 29.3267 13.7618 29.594 13.7618H32.1093C29.7141 10.5879 25.9056 8.53906 21.617 8.53906C17.3284 8.53906 13.5144 10.5879 11.1191 13.7618H25.1526Z" fill="white"/>
<path d="M20.1067 30.534H16.6692C16.4019 30.534 16.1454 30.4199 15.9654 30.2188L15.0269 29.1645C14.885 29.0069 14.6886 28.9199 14.4758 28.9199C14.263 28.9199 14.0611 29.0123 13.9247 29.1645L13.1172 30.0721C12.8553 30.371 12.4734 30.5395 12.0751 30.5395H12.0205C14.4158 33.0938 17.826 34.697 21.6181 34.697C25.4102 34.697 28.8149 33.0938 31.2156 30.5395L20.1067 30.534Z" fill="white"/>
</g>
</g>
<rect x="1" y="1" width="41.4555" height="41.4555" rx="8.89117" stroke="white" stroke-width="2"/>
</g>
<defs>
<filter id="filter0_b_574_15104" x="-4.93194" y="-4.93194" width="53.3194" height="53.319" filterUnits="userSpaceOnUse" color-interpolation-filters="sRGB">
<feFlood flood-opacity="0" result="BackgroundImageFix"/>
<feGaussianBlur in="BackgroundImageFix" stdDeviation="2.46597"/>
<feComposite in2="SourceAlpha" operator="in" result="effect1_backgroundBlur_574_15104"/>
<feBlend mode="normal" in="SourceGraphic" in2="effect1_backgroundBlur_574_15104" result="shape"/>
</filter>
<clipPath id="clip0_574_15104">
<rect x="2" y="2" width="39.4555" height="39.4555" rx="7.89117" fill="white"/>
</clipPath>
<clipPath id="clip1_574_15104">
<rect width="26.1518" height="26.1518" fill="white" transform="translate(8.53809 8.53906)"/>
</clipPath>
</defs>
</svg>
