<svg xmlns="http://www.w3.org/2000/svg" width="120" height="40" fill="none" xmlns:v="https://vecta.io/nano"><path d="M61.736 17.828c0 2.641-1.177 3.602-2.549 4.322l2.92 5.85h-3.595l-2.484-5.086h-.806-3.508V28H48.4V12.72h3.312v.022l4.118-.022c1.83 0 5.905 0 5.905 5.108zm-6.166 2.117c.959 0 3.094.022 3.094-2.117 0-2.117-2.005-2.117-3.029-2.117h-3.922v4.235h3.857zM67.03 28h-3.29V15.842h3.29V28zm0-13.031h-3.29V12h3.29v2.969zm8.046 5.609c2.767.415 5.905.895 5.905 3.798 0 3.034-2.179 3.624-5.927 3.624-2.767 0-4.663-.502-5.644-1.484-.85-.851-1.65-1.877-1.628-2.51v-.24h4.199v.109c0 1.048.784 1.528 2.985 1.528 1.329 0 2.593-.175 2.593-.982 0-.917-1.177-1.091-2.506-1.244l-.523-.066c-3.508-.458-5.687-1.244-5.687-3.689 0-1.703.981-3.733 5.687-3.733 5.055 0 6.123 2.248 6.123 4.125v.109h-3.377v-.109c0-.96-.828-1.484-2.745-1.484-1.852 0-2.244.677-2.244 1.048 0 .546.37.851 2.506 1.179l.283.022zm19.958 2.074h-9.762c.24 1.637 1.22 2.445 3.356 2.445 1.983 0 2.963-.546 3.268-1.353h3.203C94.773 26.385 92.637 28 88.628 28c-4.184 0-6.559-2.096-6.559-6.177 0-3.995 2.441-6.177 6.559-6.177 1.721 0 3.116.437 4.14 1.157v-.022c2.353 1.615 2.571 4.191 2.397 5.872h-.131zm-6.406-4.104c-1.83 0-2.833.677-3.225 1.921h6.45c-.261-.917-.872-1.921-3.225-1.921zM105.166 28h-3.29V15.842h3.29V28zm0-13.031h-3.29V12h3.29v2.969zm9.539.785c5.165 0 5.295 4.344 5.295 6.134V28h-3.29v-6.112c0-.96.196-3.274-2.963-3.274-2.877 0-3.291 1.834-3.291 3.492V28h-3.312V15.754h3.312v1.812h.153c.784-1.091 1.896-1.812 4.096-1.812z" fill="#000"/><path d="M30.864 9.109H20.602v10.297h10.262V9.109z" fill="#8427fd"/><path d="M20.551 19.406H10.288v10.297h10.262V19.406z" fill="url(#A)"/><path d="M20.562 9.109H10.3v10.297h10.262V9.109z" fill="#cc45ff"/><path d="M10.262 9.109H0l4.733 5.149 5.53 5.148V9.109z" fill="#41dabe"/><path d="M30.864 19.406H20.602v10.297h10.262V19.406z" fill="#cc45ff"/><path d="M30.864 29.703H20.602L26.1 35.05 30.864 40V29.703z" fill="#41dabe"/><path fill-rule="evenodd" d="M35.606 6.446l-3.951-1.21 3.799-1.247L36.886 0l1.294 3.862L42 5.235l-3.954 1.327-1.159 3.791-1.28-3.908z" fill="#020202"/><defs><linearGradient id="A" x1="10.288" y1="20.717" x2="19.103" y2="27.374" gradientUnits="userSpaceOnUse"><stop stop-color="#41dabe"/><stop offset="1" stop-color="#b4ff24"/></linearGradient></defs></svg>